# xmcd CD database file
#
# Track frame offsets:
#	150
#	22246
#	43332
#	60473
#	83313
#	103785
#	121215
#	136450
#
# Disc length: 2074 seconds
#
# Revision: 0
# Processed by: cddbd v1.5.1PL0 Copyright (c) Steve Scherf et al.
# Submitted via: CDex 1.51
#
DISCID=67081808
DTITLE=Marvin Santiago - Platino
DYEAR=1900
DGENRE=Salsa
TTITLE0=Cinco Hijos
TTITLE1=Acurrucao
TTITLE2=La Mentirosa
TTITLE3=Azucena
TTITLE4=El Regreso de Mambru
TTITLE5=Cuquera
TTITLE6=Como un Cañón
TTITLE7=Sincero, Amor
EXTD=
EXTT0=
EXTT1=
EXTT2=
EXTT3=
EXTT4=
EXTT5=
EXTT6=
EXTT7=
PLAYORDER=
